<svg width="27" height="26" viewBox="0 0 27 26" xmlns="http://www.w3.org/2000/svg">
<!-- <g clip-path="url(#clip0_1377_18066)"> -->
<path d="M0.842617 26C0.379178 26 0 25.6208 0 25.1574C0 24.6939 0.379178 24.3148 0.842617 24.3148H3.8971V17.5949C3.8971 16.1835 4.4448 14.8511 5.43488 13.8453C6.42495 12.8394 7.74681 12.2706 9.15293 12.2443H9.23719L20.7968 0.67936C21.2392 0.242252 21.8185 0 22.4399 0C23.0614 0 23.6459 0.242252 24.083 0.67936L25.6208 2.21714C26.5266 3.12295 26.5266 4.59753 25.6208 5.50334L16.3626 14.7563L16.4468 14.8985C16.9261 15.7148 17.1789 16.647 17.1789 17.5949V24.3148H20.2333C20.6968 24.3148 21.076 24.6939 21.076 25.1574C21.076 25.6208 20.6968 26 20.2333 26H0.842617ZM5.58234 24.3148H15.4884V20.0069L15.2672 20.0174C15.2514 20.0174 15.2303 20.0174 15.2145 20.0174H5.58234V24.3148ZM9.25299 13.9242C7.23071 13.9242 5.58234 15.5726 5.58234 17.5949V18.2269H15.2145C15.2303 18.2269 15.2514 18.2269 15.2672 18.2269L15.4884 18.2374V17.5949C15.4884 15.5726 13.84 13.9242 11.8177 13.9242H9.25299ZM11.6386 12.2232L12.1126 12.2495C13.208 12.3075 14.2455 12.6972 15.1092 13.3713L15.2566 13.4871L15.8465 12.8973L15.225 8.63682L11.6386 12.2232ZM17.0841 6.7778L17.7002 11.0383L20.0438 8.69475L19.4276 4.43427L17.0841 6.7778ZM22.4399 1.68523C22.2714 1.68523 22.1082 1.7537 21.987 1.86956L21.2813 2.57525L21.8975 6.83573L24.4254 4.30788C24.5465 4.18675 24.6097 4.02876 24.6097 3.85497C24.6097 3.68645 24.5412 3.52319 24.4254 3.40207L22.8876 1.86429C22.7717 1.74843 22.6137 1.68523 22.4399 1.68523Z" />
<!-- </g> -->
<defs>
<clipPath id="clip0_1377_18066">
<rect width="26.3002" height="26" />
</clipPath>
</defs>
</svg>
