<svg width="20" height="20" viewBox="0 0 31 27" xmlns="http://www.w3.org/2000/svg">
<path d="M29.9943 17.0427C29.0937 18.1756 28.1932 19.314 27.2926 20.4468C26.8564 20.9906 26.4146 21.5343 25.9785 22.0781C25.4687 22.7125 25.1062 22.7578 24.4379 22.2763C23.4184 21.5457 22.4045 20.8093 21.3623 20.0617C20.9771 20.3675 20.5977 20.6734 20.2182 20.9736C19.748 21.3418 19.4252 21.3531 18.9381 21.0076C17.8279 20.2146 16.7121 19.416 15.585 18.606C15.5227 18.691 15.466 18.759 15.415 18.8382C14.9902 19.4613 14.5654 20.0843 14.1406 20.7074C13.7328 21.3078 13.2967 21.3927 12.7076 20.9849C12.4754 20.8263 12.2432 20.6621 12.0053 20.4978C9.49043 23.2052 6.36387 24.3494 2.69355 24.1341C2.69355 24.7402 2.69922 25.3066 2.69355 25.8674C2.68789 26.2638 2.46699 26.5584 2.10449 26.6773C1.77031 26.7849 1.40781 26.683 1.19258 26.4054C1.11895 26.3091 1.0623 26.2015 1 26.1052C1 23.0636 1 20.0277 1 16.9861C1.02266 16.9465 1.05098 16.9125 1.07363 16.8728C1.27187 16.4877 1.65137 16.2951 2.0252 16.38C2.43867 16.4763 2.69355 16.7992 2.69922 17.2466C2.70488 17.7677 2.69922 18.2832 2.69922 18.8043C2.69922 18.8779 2.70488 18.9515 2.71055 19.0308C4.50605 19.1554 6.23926 19.0705 7.6666 17.7847C7.72324 17.7338 7.77988 17.6941 7.87051 17.6261C7.6666 17.4845 7.49668 17.3713 7.32676 17.2523C6.8623 16.9238 6.77734 16.4424 7.1002 15.9722C7.62129 15.2246 8.14805 14.4769 8.6918 13.7066C8.60117 13.6386 8.52187 13.5763 8.44258 13.5197C7.20215 12.6304 5.95605 11.7412 4.71562 10.8519C3.78105 10.1836 3.63945 9.14137 4.35312 8.24645C6.075 6.08844 7.80254 3.94176 9.53008 1.79508C10.2721 0.871842 11.1557 0.747232 12.1299 1.44958C15.9758 4.22497 19.8217 7.00602 23.6676 9.78141C25.1742 10.8689 26.6809 11.9564 28.1875 13.0439C28.8049 13.4914 28.8219 14.0861 28.2328 14.5675C28.1139 14.6638 28.0006 14.7545 27.8533 14.8734C28.0686 15.0207 28.2611 15.1623 28.4594 15.2982C28.7709 15.5134 29.0994 15.706 29.3883 15.9439C29.6148 16.1308 29.7904 16.3687 29.9943 16.5896C29.9943 16.7369 29.9943 16.8898 29.9943 17.0427ZM19.5328 19.3424C21.8211 17.5129 24.098 15.6947 26.4033 13.8539C21.249 10.1326 16.123 6.42829 10.9744 2.71266C9.18457 4.93864 7.40039 7.15329 5.60488 9.39626C10.2607 12.7211 14.8939 16.0289 19.5328 19.3424ZM9.26953 18.5947C8.34629 19.5519 7.27578 20.1863 6.02402 20.5261C5.06113 20.7867 4.08125 20.7527 3.10137 20.7584C2.97109 20.7584 2.84648 20.7584 2.69355 20.7584C2.69355 21.2738 2.69355 21.7552 2.69355 22.231C2.69355 22.2933 2.70488 22.3613 2.71055 22.4293C5.7748 22.6388 8.41992 21.7439 10.5893 19.5123C10.1361 19.2007 9.71133 18.9062 9.26953 18.5947ZM24.9986 20.5828C25.9728 19.3763 26.9244 18.1925 27.8986 16.9861C27.4059 16.6463 26.9357 16.3234 26.4543 15.9949C25.2195 16.9804 23.9904 17.9547 22.7443 18.9572C23.5033 19.5066 24.2396 20.0334 24.9986 20.5828ZM8.94101 16.3007C10.3457 17.275 11.7221 18.2322 13.1098 19.1951C13.4779 18.657 13.8234 18.1472 14.1859 17.6148C12.8096 16.6349 11.4559 15.6664 10.0852 14.6808C9.7 15.2246 9.33183 15.7513 8.94101 16.3007Z"  stroke-width="0.25"/>
</svg>
