<svg width="12" height="12" viewBox="0 0 12 12" fill="none" xmlns="http://www.w3.org/2000/svg">
<path fill-rule="evenodd" clip-rule="evenodd" d="M11.1347 2.56009C11.6878 2.00697 11.6849 1.12347 11.1381 0.576733C10.5876 0.0261877 9.70343 0.031548 9.15479 0.580192L5.85842 3.87656L2.56204 0.580192C2.00892 0.0270671 1.12542 0.0299994 0.578687 0.576733C0.0281408 1.12728 0.0335011 2.01145 0.582146 2.56009L3.87852 5.85646L0.582146 9.15284C0.0290202 9.70596 0.0319525 10.5895 0.578687 11.1362C1.12923 11.6867 2.0134 11.6814 2.56204 11.1327L5.85842 7.83636L9.15479 11.1327C9.70792 11.6859 10.5914 11.6829 11.1381 11.1362C11.6887 10.5856 11.6833 9.70148 11.1347 9.15284L7.83832 5.85646L11.1347 2.56009Z" fill="#6D7A8A"/>
</svg>
