<svg width="10" height="10" viewBox="0 0 10 10" fill="none" xmlns="http://www.w3.org/2000/svg">
<path d="M9.09194 8.11696L6.15908 5.1841L9.09199 2.2512C9.41208 1.9311 9.41208 1.41208 9.09198 1.09198C8.77189 0.771886 8.25283 0.77193 7.93277 1.09198L4.99969 4.02506L2.06692 1.09229C1.74687 0.772238 1.22776 0.772238 0.907708 1.09229C0.587609 1.41239 0.587654 1.93145 0.907709 2.25151L3.84035 5.18414L0.907533 8.11696C0.587478 8.43701 0.587479 8.95603 0.907577 9.27613C1.22763 9.59618 1.74669 9.59623 2.06675 9.27617L4.99969 6.34323L7.93273 9.27626C8.25274 9.59627 8.77184 9.59627 9.0919 9.27622C9.412 8.95612 9.412 8.43701 9.09194 8.11696Z" fill="#FF3B30"/>
</svg>
