<svg width="26" height="26" viewBox="0 0 26 26"  xmlns="http://www.w3.org/2000/svg">
<!-- <g clip-path="url(#clip0_1377_18070)"> -->
<path d="M23.964 11.2679L23.9045 11.3468L23.964 11.2679L13.5272 3.39769C13.5272 3.39768 13.5272 3.39768 13.5272 3.39767C13.2138 3.16119 12.7814 3.16119 12.468 3.39767C12.468 3.39768 12.468 3.39769 12.468 3.39769L2.03132 11.2679L2.03132 11.2679C1.81094 11.4341 1.68125 11.6941 1.68125 11.9702V25.221C1.68125 25.7068 2.07506 26.1006 2.56086 26.1006H23.4344C23.9202 26.1006 24.314 25.7068 24.314 25.221V11.9702C24.314 11.6942 24.1844 11.4342 23.964 11.2679ZM22.5547 24.3413H3.44046V12.4086L12.9976 5.20173L22.5547 12.4086V24.3413Z"   stroke-width="0.2"/>
<path d="M3.0905 9.35221L3.09047 9.35223C2.70249 9.6446 2.15097 9.56736 1.85854 9.17942C1.56613 8.79163 1.64343 8.24013 2.03132 7.94761L2.09153 8.02745L2.03132 7.9476L12.468 0.0773791C12.468 0.0773726 12.468 0.0773658 12.468 0.0773593C12.7814 -0.15912 13.2138 -0.15912 13.5272 0.0773597L3.0905 9.35221ZM3.0905 9.35221L12.9977 1.88142L22.9048 9.3522C23.0633 9.47175 23.2493 9.52962 23.4338 9.52962C23.7002 9.52962 23.9637 9.40893 24.1367 9.17956C24.4292 8.79176 24.3518 8.24012 23.9639 7.94771C23.9639 7.94771 23.9639 7.94771 23.9639 7.9477L13.5272 0.0773791L3.0905 9.35221Z"   stroke-width="0.2"/>
<path d="M9.90138 12.1424V14.1554C9.09801 14.3155 8.48984 15.0238 8.48984 15.8742V21.2696C8.48984 22.2371 9.27691 23.0241 10.2444 23.0241H15.7505C16.718 23.0241 17.5051 22.2371 17.5051 21.2696V15.8742C17.5051 14.9067 16.718 14.1197 15.7505 14.1197H11.6606V12.1425C11.6606 11.4054 12.2604 10.8057 12.9974 10.8057C13.7344 10.8057 14.3342 11.4055 14.3342 12.1425V13.0099C14.3342 13.4957 14.728 13.8895 15.2138 13.8895C15.6996 13.8895 16.0934 13.4957 16.0934 13.0099V12.1425C16.0934 10.4353 14.7046 9.04648 12.9974 9.04648C11.2902 9.04648 9.90138 10.4352 9.90138 12.1424ZM10.2491 15.8789H15.7459V21.2649H10.2491V15.8789Z"  stroke-width="0.2"/>
<!-- </g> -->
<defs>
<clipPath id="clip0_1377_18070">
<rect width="26" height="26" />
</clipPath>
</defs>
</svg>
