<svg width="26" height="26" viewBox="0 0 26 26" fill="none" xmlns="http://www.w3.org/2000/svg">
<path d="M14.0156 7.00781V12.5793L17.713 16.2767C18.1096 16.6733 18.1096 17.3164 17.713 17.713C17.3163 18.1096 16.6733 18.1096 16.2767 17.713L12.2819 13.7181C12.0914 13.5277 11.9844 13.2693 11.9844 13V7.00781C11.9844 6.44688 12.4391 5.99219 13 5.99219C13.5609 5.99219 14.0156 6.44688 14.0156 7.00781ZM16.9948 0H9.00519C6.87796 0 4.77933 0.747602 3.10014 2.20787V1.01562C3.10014 0.454695 2.64545 0 2.08452 0C1.52359 0 1.06889 0.454695 1.06889 1.01562V5.01043C1.06889 5.57136 1.5275 6.02606 2.08452 6.02606H6.07933C6.64026 6.02606 7.09495 5.57136 7.09495 5.01043C7.09495 4.4495 6.64026 3.99481 6.07933 3.99481H4.15812C5.4436 2.75549 7.17884 2.03125 9.00519 2.03125H16.9948C20.8403 2.03125 23.9688 5.15973 23.9688 9.00519V16.9948C23.9688 20.8403 20.8403 23.9688 16.9948 23.9688H9.00519C5.15973 23.9688 2.03125 20.8403 2.03125 16.9948V13C2.03125 12.4391 1.57655 11.9844 1.01562 11.9844C0.454695 11.9844 0 12.4391 0 13V16.9948C0 21.9603 4.0397 26 9.00519 26H16.9948C21.9603 26 26 21.9603 26 16.9948V9.00519C26 4.0397 21.9603 0 16.9948 0V0Z" fill="#6D7A8A"/>
</svg>
