<svg width="22" height="26" viewBox="0 0 22 26"  xmlns="http://www.w3.org/2000/svg">
<path d="M20.91 18.4165C20.54 18.1302 20.1587 17.0689 19.927 15.5639C19.7238 14.2437 19.6564 12.8893 19.6596 11.9397L19.6596 8.67959C19.6596 3.89392 15.7795 0 10.9995 0C6.21952 0 2.33935 3.89392 2.33935 8.67964V11.9272C2.33971 12.1724 2.33098 12.5805 2.30424 13.0972C2.26055 13.9417 2.18144 14.7829 2.05925 15.5605C1.82254 17.0668 1.43816 18.1294 1.06504 18.4182C0.228445 19.0623 0.456535 20.4362 1.55355 20.6823C1.5741 20.6869 1.5946 20.6909 1.6151 20.6943C1.61693 20.6946 1.6187 20.6948 1.62048 20.6951C2.95035 20.9735 4.28814 21.1922 5.62999 21.351C6.00112 23.9786 8.25878 26 10.9887 26C13.718 26 15.9753 23.9795 16.3472 21.3528C17.6932 21.1935 19.0329 20.9742 20.3623 20.6943C20.3828 20.6909 20.4033 20.6869 20.4239 20.6822C21.5208 20.4362 21.7489 19.0623 20.91 18.4165ZM10.9886 23.8349C9.53456 23.8349 8.30358 22.879 7.88978 21.5614C9.95578 21.7025 12.0261 21.7028 14.087 21.5628C13.6728 22.8797 12.4422 23.8349 10.9886 23.8349ZM15.3118 19.2885C15.2723 19.2881 15.2323 19.2896 15.192 19.2936C12.3965 19.566 9.58084 19.566 6.78525 19.2936C6.74486 19.2896 6.70477 19.2881 6.66514 19.2886C5.56752 19.1787 4.47335 19.027 3.38537 18.8331C3.75635 18.068 4.01184 17.0813 4.19802 15.8967C4.42997 14.4206 4.50588 12.9537 4.50435 11.9274V8.67964C4.50435 5.0879 7.41685 2.16505 10.9995 2.16505C14.5821 2.16505 17.4946 5.0879 17.4946 8.67964V11.9272C17.491 12.9851 17.5633 14.4395 17.7871 15.8933C17.9697 17.0794 18.2228 18.0672 18.5925 18.833C17.5042 19.0268 16.4097 19.1786 15.3118 19.2885Z" />
</svg>
