<svg width="29" height="24" viewBox="0 0 29 24"  xmlns="http://www.w3.org/2000/svg">
<path d="M21.5912 3.39399L21.7054 3.42267L21.7153 3.30534C21.8652 1.51337 23.3698 0.1 25.2 0.1C27.1302 0.1 28.7 1.66983 28.7 3.6C28.7 5.12026 27.7244 6.41378 26.3666 6.89576L26.3 6.91938V6.99V21.6V21.7H26.4H27.6C28.2072 21.7 28.7 22.1928 28.7 22.8C28.7 23.4072 28.2072 23.9 27.6 23.9H1.2C0.592828 23.9 0.1 23.4072 0.1 22.8C0.1 22.1928 0.592829 21.7 1.2 21.7H2.4H2.5V21.6V6.99V6.91938L2.43345 6.89576C1.07561 6.41378 0.1 5.12026 0.1 3.6C0.1 1.66983 1.66983 0.1 3.6 0.1C5.43022 0.1 6.93485 1.51337 7.08535 3.30537L7.0952 3.4226L7.20931 3.394C7.71313 3.26775 8.21958 3.15235 8.72872 3.05315L8.72875 3.05329L8.73385 3.05201C8.77113 3.0427 8.81126 3.03669 8.85602 3.03072L8.85604 3.03087L8.86143 3.02985C10.2937 2.75835 11.7468 2.59032 13.2046 2.53172L13.3006 2.52786V2.4318V1.2C13.3006 0.592828 13.7934 0.1 14.4006 0.1C15.0078 0.1 15.5006 0.592828 15.5006 1.2V2.4312V2.52726L15.5966 2.53112C17.0538 2.58972 18.5051 2.75834 19.9362 3.02985L19.9361 3.02997L19.941 3.03064C19.988 3.03719 20.0303 3.0438 20.0703 3.05381L20.0703 3.05395L20.0755 3.05497C20.5836 3.15358 21.0888 3.26777 21.5912 3.39399ZM18.7 5.1312V5.04553L18.6153 5.03238C17.6186 4.87761 16.613 4.77885 15.6044 4.7349L15.5 4.73035V4.8348V21.6V21.7H15.6H18.6H18.7V21.6V5.1312ZM13.2 21.7H13.3V21.6V4.8348V4.73035L13.1956 4.7349C12.187 4.77885 11.1813 4.87821 10.1847 5.03238L10.1 5.04548V5.1312V21.6V21.7H10.2H13.2ZM4.67349 4.33147L4.67375 4.33168L4.67832 4.32489C4.81802 4.11762 4.9 3.86787 4.9 3.6C4.9 2.88297 4.31703 2.3 3.6 2.3C2.88297 2.3 2.3 2.88297 2.3 3.6C2.3 4.31703 2.88297 4.9 3.6 4.9C4.03559 4.9 4.41965 4.68243 4.65505 4.35429L4.65507 4.3543L4.6562 4.35265C4.65827 4.34965 4.65918 4.3486 4.66119 4.3463C4.66327 4.34391 4.66653 4.34017 4.67349 4.33147ZM4.76651 6.89577L4.7 6.91941V6.99V21.6V21.7H4.8H7.8H7.9V21.6V5.616V5.48796L7.77577 5.51898C7.24018 5.65273 6.70956 5.80451 6.18453 5.97129L6.15983 5.97914L6.14205 5.99799C5.76459 6.3982 5.295 6.70795 4.76651 6.89577ZM20.9 21.6V21.7H21H24H24.1V21.6V6.9906V6.92001L24.0335 6.89637C23.505 6.70855 23.0354 6.3988 22.6579 5.99859L22.6402 5.97972L22.6154 5.97188C22.0898 5.80511 21.5598 5.65333 21.0242 5.51958L20.9 5.48856V5.6166V21.6ZM26.5 3.6C26.5 2.88297 25.917 2.3 25.2 2.3C24.483 2.3 23.9 2.88297 23.9 3.6C23.9 4.31703 24.483 4.9 25.2 4.9C25.917 4.9 26.5 4.31703 26.5 3.6Z"  stroke-width="0.2"/>
</svg>
