<svg width="13" height="13" viewBox="0 0 13 13" fill="none" xmlns="http://www.w3.org/2000/svg">
<path d="M11.4692 5.68033H7.32147V1.53258C7.32147 1.07989 6.95447 0.712891 6.50178 0.712891C6.0491 0.712891 5.6821 1.07995 5.6821 1.53258V5.68058H1.53453C1.08191 5.68058 0.714844 6.04764 0.714844 6.50027C0.714844 6.95295 1.08191 7.31995 1.53453 7.31995H5.68191V11.4676C5.68191 11.9202 6.04891 12.2872 6.5016 12.2872C6.95422 12.2872 7.32128 11.9202 7.32128 11.4676V7.31977H11.4692C11.9218 7.31977 12.2888 6.9527 12.2888 6.50008C12.2888 6.04739 11.9218 5.68033 11.4692 5.68033Z" fill="#6D7A8A"/>
</svg>
