<svg width="22" height="28" viewBox="0 0 22 28" fill="none" xmlns="http://www.w3.org/2000/svg">
<path d="M0.188594 14.9804C0.0175971 13.4984 0.160095 12.0677 0.547689 10.7454C1.83587 6.35072 5.8771 3.11887 10.6707 3.06188V0.189122C10.6707 0.0295246 10.8702 -0.0559741 11.0013 0.0409244L16.9121 4.38425C17.009 4.45835 17.009 4.60655 16.9121 4.67495L11.007 9.01828C10.8702 9.11518 10.6764 9.02968 10.6764 8.87008V6.00303C7.52438 6.05433 4.83402 7.998 3.67694 10.7454C3.23804 11.7827 3.01575 12.9284 3.07845 14.1311C3.16395 15.7841 3.78524 17.3059 4.76562 18.5371C5.29001 19.1926 5.16461 20.1502 4.48632 20.6461C3.84224 21.1192 2.94165 20.9881 2.44576 20.3611C1.23168 18.8449 0.422291 16.9981 0.188594 14.9804ZM17.2541 9.46287C18.2402 10.6884 18.8615 12.2159 18.9413 13.8689C19.004 15.0773 18.776 16.223 18.3428 17.2546C17.1857 20.002 14.4954 21.9514 11.3433 21.997V19.1299C11.3433 18.9703 11.1438 18.8848 11.0127 18.9817L5.10191 23.325C5.00502 23.3991 5.00502 23.5473 5.10191 23.6157L11.007 27.9591C11.1438 28.056 11.3376 27.9705 11.3376 27.8109V24.9381C16.1312 24.8868 20.1782 21.655 21.4607 17.2546C21.8482 15.9323 21.985 14.5016 21.8197 13.0196C21.5918 11.0018 20.7824 9.15508 19.5683 7.6389C19.0667 7.01191 18.1718 6.88081 17.5277 7.35391C16.8551 7.8498 16.7297 8.80738 17.2541 9.46287Z" fill="#298BFF"/>
</svg>
